HIERARCHY
ROOT SpineBase
{
  OFFSET 0.000000 0.000000 0.000000
  CHANNELS 6 Xposition Yposition Zposition Zrotation Xrotation Yrotation
  JOINT SpineMid
  {
    OFFSET 0.000000 28.693781 -0.000000
    CHANNELS 3 Zrotation Xrotation Yrotation
    JOINT SpineShoulder
    {
      OFFSET 0.100656 21.499973 -0.625918
      CHANNELS 3 Zrotation Xrotation Yrotation
      JOINT Neck
      {
        OFFSET 0.059370 7.179054 -0.485968
        CHANNELS 3 Zrotation Xrotation Yrotation
        JOINT Head
        {
          OFFSET 0.823676 9.803347 6.919428
          CHANNELS 3 Zrotation Xrotation Yrotation
          End Site
          {
            OFFSET 0 0 0
          }
        }
      }
      JOINT ShoulderLeft
      {
        OFFSET -12.621696 0.368927 12.781737
        CHANNELS 3 Zrotation Xrotation Yrotation
        JOINT ElbowLeft
        {
          OFFSET -1.392303 -21.574166 -13.290952
          CHANNELS 3 Zrotation Xrotation Yrotation
          JOINT WristLeft
          {
            OFFSET -3.666971 -20.577649 -4.711370
            CHANNELS 3 Zrotation Xrotation Yrotation
            JOINT HandLeft
            {
              OFFSET 0.024935 -7.620397 -3.929906
              CHANNELS 3 Zrotation Xrotation Yrotation
              JOINT HandTipLeft
              {
                OFFSET -2.540924 -5.503867 -0.553696
                CHANNELS 3 Zrotation Xrotation Yrotation
                End Site
                {
                  OFFSET 0 0 0
                }
              }
              JOINT ThumbLeft
              {
                OFFSET -3.262089 -0.863799 -1.530255
                CHANNELS 3 Zrotation Xrotation Yrotation
                End Site
                {
                  OFFSET 0 0 0
                }
              }
            }
          }
        }
      }
      JOINT ShoulderRight
      {
        OFFSET 13.089908 -5.767679 6.231914
        CHANNELS 3 Zrotation Xrotation Yrotation
        JOINT ElbowRight
        {
          OFFSET 2.680219 -23.644111 4.100272
          CHANNELS 3 Zrotation Xrotation Yrotation
          JOINT WristRight
          {
            OFFSET -19.710271 -9.030136 -12.784850
            CHANNELS 3 Zrotation Xrotation Yrotation
            JOINT HandRight
            {
              OFFSET 0.471751 1.257519 -7.203023
              CHANNELS 3 Zrotation Xrotation Yrotation
              JOINT HandTipRight
              {
                OFFSET -4.669547 -4.862113 -1.053679
                CHANNELS 3 Zrotation Xrotation Yrotation
                End Site
                {
                  OFFSET 0 0 0
                }
              }
              JOINT ThumbRight
              {
                OFFSET 4.751737 -0.943758 -2.906909
                CHANNELS 3 Zrotation Xrotation Yrotation
                End Site
                {
                  OFFSET 0 0 0
                }
              }
            }
          }
        }
      }
    }
  }
  JOINT HipLeft
  {
    OFFSET -4.317785 2.267107 -4.161373
    CHANNELS 3 Zrotation Xrotation Yrotation
    JOINT KneeLeft
    {
      OFFSET 1.189034 -39.275127 -8.145131
      CHANNELS 3 Zrotation Xrotation Yrotation
      JOINT AnkleLeft
      {
        OFFSET -3.059146 -30.395166 -7.210572
        CHANNELS 3 Zrotation Xrotation Yrotation
        JOINT FootLeft
        {
          OFFSET 2.644657 -6.313284 -0.969380
          CHANNELS 3 Zrotation Xrotation Yrotation
          End Site
          {
            OFFSET 0 0 0
          }
        }
      }
    }
  }
  JOINT HipRight
  {
    OFFSET 4.643002 0.401382 -1.554913
    CHANNELS 3 Zrotation Xrotation Yrotation
    JOINT KneeRight
    {
      OFFSET 4.673275 -39.803589 -0.379811
      CHANNELS 3 Zrotation Xrotation Yrotation
      JOINT AnkleRight
      {
        OFFSET 1.028799 -30.820582 -3.383816
        CHANNELS 3 Zrotation Xrotation Yrotation
        JOINT FootRight
        {
          OFFSET -1.456354 -0.306741 -15.871004
          CHANNELS 3 Zrotation Xrotation Yrotation
          End Site
          {
            OFFSET 0 0 0
          }
        }
      }
    }
  }
}
MOTION
Frames: 13
Frame Time: 0.033333
-16.990172 75.512696 272.804108 -0.000000 -0.000000 -16.218345 -0.000000 0.000000 16.218345 -0.000000 0.000000 0.000000 -0.000000 0.000000 0.000000 0.000000 0.000000 0.000000 -0.000000 0.000000 0.000000 -0.000000 0.000000 0.000000 -0.000000 0.000000 0.000000 -0.000000 0.000000 0.000000 0.000000 0.000000 0.000000 0.000000 0.000000 0.000000 -0.000000 0.000000 0.000000 -0.000000 0.000000 0.000000 -0.000000 0.000000 0.000000 -0.000000 0.000000 0.000000 0.000000 0.000000 0.000000 0.000000 0.000000 0.000000 -0.000000 0.000000 16.218345 -0.000000 0.000000 0.000000 -0.000000 0.000000 0.000000 0.000000 0.000000 0.000000 -0.000000 0.000000 16.218345 -0.000000 0.000000 0.000000 -0.000000 0.000000 0.000000 0.000000 0.000000 0.000000
-16.789357 75.393420 273.018627 0.035255 -0.087292 -16.223839 -0.058240 0.073966 16.223904 -0.000000 0.000000 0.000000 -0.522449 0.713753 0.310558 0.000000 0.000000 0.000000 0.793775 0.729915 -0.539303 -0.786935 -0.737285 0.529183 -0.410625 -4.297685 0.185886 0.618617 5.303175 -0.717506 0.000000 0.000000 0.000000 0.000000 0.000000 0.000000 -0.000000 0.000000 0.000000 -0.000000 0.000000 0.000000 3.948669 -13.445319 16.818891 -0.048079 16.532065 -18.428557 0.000000 0.000000 0.000000 0.000000 0.000000 0.000000 -0.058240 0.073966 16.223904 -0.000000 0.000000 0.000000 -0.990738 1.126636 0.635171 0.000000 0.000000 0.000000 -0.058240 0.073966 16.223904 -0.000000 0.000000 0.000000 0.785714 -6.818195 3.874784 0.000000 0.000000 0.000000
-16.600651 75.289601 273.212081 0.046728 -0.141969 -16.093186 -0.084251 0.123453 16.093335 -0.000000 0.000000 0.000000 -0.933098 1.230025 0.560647 0.000000 0.000000 0.000000 1.492988 1.319286 -1.015778 -1.123535 -0.571355 0.768237 -1.064783 -8.822098 0.522460 1.138643 9.771058 -1.306070 0.000000 0.000000 0.000000 0.000000 0.000000 0.000000 -0.000000 0.000000 0.000000 0.899455 -0.509682 -0.160738 9.316699 -22.575468 31.708453 4.717664 29.666511 -35.090127 0.000000 0.000000 0.000000 0.000000 0.000000 0.000000 -0.084251 0.123453 16.093335 -0.000000 0.000000 0.000000 -1.767793 2.111162 1.192799 0.000000 0.000000 0.000000 -0.084251 0.123453 16.093335 -0.000000 0.000000 0.000000 2.554865 -15.644563 9.172351 0.000000 0.000000 0.000000
-16.424052 75.201240 273.384470 0.034630 -0.164391 -15.824656 -0.078146 0.148717 15.824807 -0.000000 0.000000 0.000000 -1.232417 1.554014 0.748192 0.000000 0.000000 0.000000 2.094004 1.769725 -1.424787 -1.555691 -0.690893 1.052718 -1.423985 -12.173815 0.688677 1.531670 13.253518 -1.750908 0.000000 0.000000 0.000000 0.000000 0.000000 0.000000 -0.880336 -0.364152 -0.196807 2.061803 -0.233647 -0.172847 15.240369 -28.206823 43.259745 11.808061 37.922604 -49.446665 0.000000 0.000000 0.000000 0.000000 0.000000 0.000000 -1.001774 0.303126 16.016034 0.845195 -0.403203 -0.184611 -2.330568 2.960830 1.666185 0.000000 0.000000 0.000000 -0.078146 0.148717 15.824807 -0.000000 0.000000 0.000000 5.843750 -25.648121 15.996601 0.000000 0.000000 0.000000
-16.259561 75.128338 273.535792 -0.000914 -0.154798 -15.416302 -0.040269 0.149471 15.416353 -0.000000 0.000000 0.000000 -1.420764 1.689245 0.871868 0.000000 0.000000 0.000000 2.594018 2.083023 -1.762645 -1.895973 -0.684416 1.269723 -1.664903 -14.607840 0.806736 1.769368 15.634465 -2.030461 0.000000 0.000000 0.000000 0.000000 0.000000 0.000000 -1.106611 -0.571971 -0.262331 2.456503 -0.010414 -0.393022 20.255157 -31.503554 51.815295 18.970978 42.221144 -61.017427 0.000000 0.000000 0.000000 0.000000 0.000000 0.000000 -1.227850 0.377350 15.662723 1.082011 -0.539939 -0.235812 -2.679049 3.682375 2.050406 0.000000 0.000000 0.000000 -0.040269 0.149471 15.416353 -0.000000 0.000000 0.000000 10.490710 -34.647019 23.507012 0.000000 0.000000 0.000000
-16.107178 75.070893 273.666050 -0.059864 -0.113314 -14.866000 0.028789 0.124879 14.865909 -0.000000 0.000000 0.000000 -1.498317 1.637439 0.930999 0.000000 0.000000 0.000000 2.990978 2.260923 -2.026565 -2.141020 -0.542411 1.418391 -1.789743 -16.040149 0.886097 1.831124 16.843604 -2.126422 0.000000 0.000000 0.000000 0.000000 0.000000 0.000000 -1.299454 -0.823221 -0.328023 2.705197 0.363160 -0.694806 24.354319 -33.579905 58.190656 24.683855 43.766211 -69.265132 0.000000 0.000000 0.000000 0.000000 0.000000 0.000000 -1.399231 0.440009 15.162488 1.295974 -0.677512 -0.281876 -2.813449 4.281557 2.341991 0.000000 0.000000 0.000000 0.028789 0.124879 14.865909 -0.000000 0.000000 0.000000 14.732615 -40.440105 29.367481 0.000000 0.000000 0.000000
-15.972469 75.023834 273.760358 -0.197086 -0.009675 -13.719513 0.189168 0.056141 13.719404 -0.000000 0.000000 0.000000 -1.359168 1.219644 0.863998 0.000000 0.000000 0.000000 3.151168 2.087536 -2.113741 -2.138348 0.091659 1.381632 -1.313268 -15.401537 0.767561 1.763450 15.282200 -1.693135 0.000000 0.000000 0.000000 0.000000 0.000000 0.000000 -0.192811 -2.156726 -0.280711 0.791149 2.535623 -1.445600 30.844822 -36.070920 66.505930 27.093843 41.866844 -72.193357 0.000000 0.000000 0.000000 0.000000 0.000000 0.000000 -1.468712 0.534706 14.064028 1.352258 -0.043894 -0.374284 -2.410100 3.620481 2.374251 0.000000 0.000000 0.000000 0.189168 0.056141 13.719404 -0.000000 0.000000 0.000000 21.417821 -46.693700 37.995781 0.000000 0.000000 0.000000
-15.828657 75.001709 273.846667 -0.268974 0.091423 -12.771790 0.282530 -0.029698 12.772078 -0.000000 0.000000 0.000000 -1.356160 0.716793 0.900621 0.000000 0.000000 0.000000 3.540906 2.302531 -2.376867 -2.179509 0.363658 1.451998 -1.757112 -15.992267 0.978046 2.141213 15.258585 -1.816026 0.000000 0.000000 0.000000 0.000000 0.000000 0.000000 -0.770199 -2.137701 -0.389323 0.902322 3.128172 -1.988303 34.971721 -37.585242 71.309090 28.826380 41.072966 -73.921654 0.000000 0.000000 0.000000 0.000000 0.000000 0.000000 -1.596078 0.599538 13.163163 1.516305 -0.145426 -0.416369 -0.706599 -2.611388 -0.564453 0.000000 0.000000 0.000000 0.282530 -0.029698 12.772078 -0.650928 0.519795 0.091742 21.702784 -47.405518 36.947933 0.000000 0.000000 0.000000
-15.704444 74.995726 273.918666 -0.387854 0.209954 -12.170566 0.423400 -0.123462 12.171732 -0.000000 0.000000 0.000000 -1.061060 0.329654 0.722259 0.000000 0.000000 0.000000 3.971516 2.742496 -2.685701 -2.323611 0.309757 1.587512 -2.432111 -17.608000 1.259052 1.710563 16.409688 -1.786307 0.000000 0.000000 0.000000 0.000000 0.000000 0.000000 -2.433323 -1.126466 -0.574061 3.138472 1.923323 -2.202129 36.231177 -38.399136 73.133336 27.710055 41.723419 -71.265832 0.000000 0.000000 0.000000 0.000000 0.000000 0.000000 -1.613231 0.590657 12.595209 1.637086 -0.174839 -0.448249 -0.592038 -0.720431 0.264062 0.000000 0.000000 0.000000 -0.464100 0.017385 12.217079 0.075130 0.288398 0.060164 14.445134 -41.078679 26.605253 0.000000 0.000000 0.000000
-15.597260 75.000013 273.984407 -0.502236 0.352939 -11.623429 0.563051 -0.244498 11.626177 -0.000000 0.000000 0.000000 -0.696077 -0.233707 0.510000 0.000000 0.000000 0.000000 4.358048 3.272462 -2.976160 -2.513823 0.048083 1.741606 -3.659797 -19.451115 1.700878 2.958411 18.805230 -2.986305 0.000000 0.000000 0.000000 0.000000 0.000000 0.000000 -5.170608 0.864492 -0.765150 7.011656 -0.667536 -2.038448 35.370685 -38.674717 72.748444 26.983232 42.579020 -69.164011 0.000000 0.000000 0.000000 0.000000 0.000000 0.000000 -1.589161 0.542375 12.071850 1.730009 -0.185281 -0.474072 -1.820611 7.832810 4.189175 0.000000 0.000000 0.000000 -0.433465 -0.158517 11.665325 0.094029 0.418549 0.079151 6.674163 -28.480676 13.691989 0.000000 0.000000 0.000000
-15.483654 75.018856 274.054690 -0.566344 0.465352 -11.400173 0.647162 -0.344204 11.404417 -0.000000 0.000000 0.000000 -0.482656 -0.705113 0.398534 0.000000 0.000000 0.000000 4.642347 3.683867 -3.192974 -2.818448 -0.263520 1.904525 -4.425959 -20.468377 1.964094 3.724671 20.783506 -4.030912 0.000000 0.000000 0.000000 0.000000 0.000000 0.000000 -8.691787 3.548950 -0.849847 12.012183 -4.127942 -1.371354 31.328216 -39.007311 67.720012 24.901281 44.543239 -64.189565 0.000000 0.000000 0.000000 0.000000 0.000000 0.000000 -1.608502 0.450121 11.868856 1.817352 -0.128654 -0.498646 -5.507791 21.601417 11.475929 0.000000 0.000000 0.000000 -0.478599 -0.280743 11.442168 0.128697 0.492061 0.092127 2.627098 -14.553493 3.955029 0.000000 0.000000 0.000000
-15.386208 75.045554 274.120348 -0.577044 0.548275 -11.633038 0.675764 -0.420627 11.638279 -0.000000 0.000000 0.000000 -0.572987 -0.855992 0.474372 0.000000 0.000000 0.000000 5.013742 4.288914 -3.483890 -3.426396 -0.945307 2.192707 -5.479864 -22.561781 2.268557 4.640039 23.629653 -5.119123 0.000000 0.000000 0.000000 0.000000 0.000000 0.000000 -13.537934 7.401055 -0.655026 19.242291 -9.170901 0.446343 28.785947 -41.484226 64.276913 26.135289 48.659892 -61.934364 0.000000 0.000000 0.000000 0.000000 0.000000 0.000000 -1.632983 0.281710 12.109333 1.845049 0.030523 -0.510280 -13.962639 36.289555 22.821893 0.000000 0.000000 0.000000 -0.568458 -0.349583 11.679097 0.168124 0.533463 0.098366 1.910945 -9.460277 1.689824 0.000000 0.000000 0.000000
-15.280263 75.056141 274.203404 -0.584539 0.627727 -11.796316 0.033963 0.004448 11.780739 0.550589 -0.624956 0.021955 -0.543807 -1.074555 0.471955 0.000000 0.000000 0.000000 5.180750 4.831695 -3.639329 -3.639998 -1.407876 2.295109 -6.375952 -24.461267 2.492408 5.617095 24.648779 -5.497893 0.000000 0.000000 0.000000 0.000000 0.000000 0.000000 -15.266966 8.628224 -0.540090 22.064028 -10.816141 1.104259 27.467877 -42.389473 62.669641 26.246203 51.178545 -60.738710 0.000000 0.000000 0.000000 0.000000 0.000000 0.000000 -1.679836 0.140523 12.284406 1.874523 0.193592 -0.525132 -25.969239 46.814223 36.817366 0.000000 0.000000 0.000000 -0.667298 -0.399841 11.848292 0.223486 0.562605 0.101214 1.629613 -6.741987 0.356880 0.000000 0.000000 0.000000
